<svg width="12" height="10" viewBox="0 0 12 10" fill="none" xmlns="http://www.w3.org/2000/svg">
<path d="M0 0.833333C0 0.373096 0.373096 0 0.833333 0H10.8333C11.2936 0 11.6667 0.373096 11.6667 0.833333C11.6667 1.29357 11.2936 1.66667 10.8333 1.66667H0.833334C0.373096 1.66667 0 1.29357 0 0.833333Z" fill="#475569"/>
<path d="M1.66667 4.58333C1.66667 3.89298 2.22631 3.33333 2.91667 3.33333H8.75C9.44036 3.33333 10 3.89298 10 4.58333C10 5.27369 9.44036 5.83333 8.75 5.83333H2.91667C2.22631 5.83333 1.66667 5.27369 1.66667 4.58333Z" fill="#475569"/>
<path d="M0 8.33333C0 7.8731 0.373096 7.5 0.833333 7.5H10.8333C11.2936 7.5 11.6667 7.8731 11.6667 8.33333C11.6667 8.79357 11.2936 9.16667 10.8333 9.16667H0.833334C0.373096 9.16667 0 8.79357 0 8.33333Z" fill="#475569"/>
</svg>
