<svg width="16" height="16" viewBox="0 0 16 16" fill="none" xmlns="http://www.w3.org/2000/svg">
<path d="M12.0007 6.66536V5.33203H13.334V6.66536H12.0007ZM12.0007 7.9987V6.66536H10.6673V7.9987H12.0007ZM12.0007 5.33203V3.9987H10.6673V5.33203H12.0007ZM10.6673 1.89203V2.66536H12.0007C11.5807 2.3587 11.1407 2.0987 10.6673 1.89203ZM12.0007 2.66536V3.9987H13.334C12.9473 3.4987 12.5007 3.05203 12.0007 2.66536ZM13.334 3.9987V5.33203H14.1073C13.9007 4.8587 13.6407 4.4187 13.334 3.9987ZM14.6673 7.9987C14.6673 7.54536 14.6207 7.0987 14.534 6.66536H13.334V7.9987H14.6673ZM10.6673 3.9987V2.66536H9.33398V3.9987H10.6673ZM10.6673 10.6654H12.0007V9.33203H10.6673V10.6654ZM12.0007 11.9987H13.334V10.6654H12.0007V11.9987ZM10.6673 13.332H12.0007V11.9987H10.6673V13.332ZM9.33398 14.532C9.80065 14.4387 10.2407 14.292 10.6673 14.1054V13.332H9.33398V14.532ZM12.0007 9.33203H13.334V7.9987H12.0007V9.33203ZM10.6673 5.33203H9.33398V6.66536H10.6673V5.33203ZM13.334 10.6654H14.1073C14.294 10.2387 14.4407 9.7987 14.534 9.33203H13.334V10.6654ZM10.6673 7.9987H9.33398V9.33203H10.6673V7.9987ZM8.00065 11.9987V10.6654H9.33398V9.33203H8.00065V7.9987H9.33398V6.66536H8.00065V5.33203H9.33398V3.9987H8.00065V2.66536H9.33398V1.46536C8.90065 1.3787 8.46065 1.33203 8.00065 1.33203C7.66075 1.33203 7.32658 1.35781 7 1.40751C3.80357 1.89396 1.33398 4.67193 1.33398 7.9987C1.33398 11.3255 3.80357 14.1034 7 14.5899C7.32658 14.6396 7.66075 14.6654 8.00065 14.6654V13.332H9.33398V11.9987H8.00065ZM9.33398 11.9987H10.6673V10.6654H9.33398V11.9987Z" fill="#64748B"/>
<path d="M6.5 13.9766C3.82763 13.3015 1.83398 10.8695 1.83398 7.99707C1.83415 5.12477 3.82765 2.69256 6.5 2.01758V13.9766Z" fill="#64748B" stroke="#64748B"/>
</svg>
