<svg width="17" height="12" viewBox="0 0 17 12" fill="none" xmlns="http://www.w3.org/2000/svg">
<path d="M14.5488 7.32759C14.5488 3.55681 11.4039 0.5 7.52439 0.5C3.64493 0.5 0.5 3.55681 0.5 7.32759C0.5 8.19 0.664507 9.01507 0.964683 9.77477M14.5488 7.32759L11.8171 5.81034M14.5488 7.32759L16.5 5.05172M5.96341 11.5H10.1463C10.4225 11.5 10.6463 11.2761 10.6463 11V5.55172C10.6463 5.27558 10.4225 5.05172 10.1463 5.05172H4.90244C4.6263 5.05172 4.40244 5.27558 4.40244 5.55172V11C4.40244 11.2761 4.6263 11.5 4.90244 11.5H5.96341Z" stroke="#475569" stroke-linecap="round"/>
</svg>
