<svg width="17" height="18" viewBox="0 0 17 18" fill="none" xmlns="http://www.w3.org/2000/svg">
<path d="M2.49954 3.50027V14.9996C2.49942 15.328 2.56401 15.6532 2.68962 15.9566C2.81523 16.26 2.9994 16.5357 3.23161 16.7679C3.46381 17.0001 3.73949 17.1843 4.0429 17.3099C4.34631 17.4355 4.6715 17.5001 4.99989 17.5H12.0001C12.663 17.5 13.2987 17.2367 13.7675 16.7679C14.2362 16.2992 14.4995 15.6634 14.4995 15.0005V3.49935M0.5 3.50027H16.5M5.49977 3.50027V1.99968C5.49953 1.80259 5.53818 1.6074 5.61352 1.42528C5.68886 1.24316 5.79939 1.0777 5.9388 0.938382C6.0782 0.799064 6.24372 0.688627 6.42588 0.613401C6.60805 0.538176 6.80326 0.49964 7.00035 0.500003H9.99966C10.1967 0.49964 10.392 0.538176 10.5741 0.613401C10.7563 0.688627 10.9218 0.799064 11.0612 0.938382C11.2006 1.0777 11.3111 1.24316 11.3865 1.42528C11.4618 1.6074 11.5005 1.80259 11.5002 1.99968V3.50027M6.50046 13.5872V8.58924M10.5005 13.5872V8.58924" stroke="#475569" stroke-linecap="round" stroke-linejoin="round"/>
</svg>
