<svg width="27" height="22" viewBox="0 0 27 22" fill="none" xmlns="http://www.w3.org/2000/svg">
<path fill-rule="evenodd" clip-rule="evenodd" d="M1.9 0C1.39609 0 0.912816 0.200178 0.556497 0.556497C0.200178 0.912817 0 1.39609 0 1.9V19.95C0 20.4539 0.200178 20.9372 0.556497 21.2935C0.912816 21.6498 1.39609 21.85 1.9 21.85H24.7C25.2039 21.85 25.6872 21.6498 26.0435 21.2935C26.3998 20.9372 26.6 20.4539 26.6 19.95V5.7C26.6 5.19609 26.3998 4.71282 26.0435 4.3565C25.6872 4.00018 25.2039 3.8 24.7 3.8H11.115C10.9407 3.8 10.7773 3.71592 10.6761 3.57437L10.5146 3.34923L10.336 3.09937L10.1569 2.85L8.6849 0.793725C8.50904 0.548173 8.27718 0.348082 8.00854 0.210045C7.73991 0.072008 7.44223 2.96037e-06 7.1402 0H1.9Z" fill="#F2994A"/>
<path d="M24.7 3.80078H1.9C0.850659 3.80078 0 4.65144 0 5.70078V19.9508C0 21.0001 0.850659 21.8508 1.9 21.8508H24.7C25.7493 21.8508 26.6 21.0001 26.6 19.9508V5.70078C26.6 4.65144 25.7493 3.80078 24.7 3.80078Z" fill="#F2C94C"/>
</svg>
