<svg width="24" height="24" viewBox="0 0 24 24" fill="none" xmlns="http://www.w3.org/2000/svg">
<path d="M12 19C15.866 19 19 15.866 19 12C19 8.13401 15.866 5 12 5C8.13401 5 5 8.13401 5 12C5 15.866 8.13401 19 12 19Z" stroke="#334155" stroke-linecap="round" stroke-linejoin="round"/>
<path d="M9.5 19C8.18132 18.5152 7.04206 17.6313 6.23697 16.4684C5.43188 15.3055 5 13.92 5 12.5C5 11.08 5.43188 9.69447 6.23697 8.53157C7.04206 7.36866 8.18132 6.48478 9.5 6C10.8187 6.48478 11.9579 7.36866 12.763 8.53157C13.5681 9.69447 14 11.08 14 12.5C14 13.92 13.5681 15.3055 12.763 16.4684C11.9579 17.6313 10.8187 18.5152 9.5 19Z" fill="#334155"/>
</svg>
