<svg width="24" height="24" viewBox="0 0 24 24" fill="none" xmlns="http://www.w3.org/2000/svg">
<path d="M7.49966 8.11784V16.235C7.49956 16.4668 7.54801 16.6964 7.64222 16.9106C7.73643 17.1247 7.87455 17.3193 8.0487 17.4832C8.22286 17.6472 8.42962 17.7772 8.65718 17.8658C8.88473 17.9545 9.12863 18.0001 9.37491 18H14.6251C15.1223 18 15.5991 17.8141 15.9506 17.4832C16.3022 17.1524 16.4997 16.7036 16.4997 16.2357V8.11719M6 8.11784H18M9.74983 8.11784V7.0586C9.74965 6.91948 9.77864 6.78169 9.83514 6.65314C9.89164 6.52458 9.97455 6.40779 10.0791 6.30945C10.1836 6.2111 10.3078 6.13315 10.4444 6.08005C10.581 6.02695 10.7274 5.99975 10.8753 6H13.1247C13.2726 5.99975 13.419 6.02695 13.5556 6.08005C13.6922 6.13315 13.8164 6.2111 13.9209 6.30945C14.0255 6.40779 14.1084 6.52458 14.1649 6.65314C14.2214 6.78169 14.2504 6.91948 14.2502 7.0586V8.11784M10.5003 15.2381V11.7101M13.5003 15.2381V11.7101" stroke="#334155" stroke-linecap="round" stroke-linejoin="round"/>
</svg>
