<svg width="24" height="24" viewBox="0 0 24 24" fill="none" xmlns="http://www.w3.org/2000/svg">
<path d="M6.00357 11.8533C6.00357 13.2934 5.99553 14.7336 6.00357 16.1738C5.98975 16.4044 6.02246 16.6353 6.09977 16.853C6.17708 17.0707 6.2974 17.2707 6.45359 17.441C6.60978 17.6113 6.79866 17.7486 7.009 17.8446C7.21934 17.9406 7.44686 17.9934 7.67804 17.9999L16.1864 17.9986C16.4142 18.0078 16.6415 17.9717 16.8552 17.8923C17.0689 17.813 17.2646 17.6919 17.4311 17.5363C17.5975 17.3807 17.7312 17.1936 17.8246 16.9858C17.9179 16.7781 17.9689 16.5539 17.9747 16.3263C18.0316 14.84 17.9747 13.3409 17.9747 11.8533M9.34912 8.55283L11.8066 6.09858C11.8618 6.04219 11.9366 6.00915 12.0156 6.00627C12.0249 6.00225 12.0283 5.9969 12.043 6.00225C12.0528 6.00582 12.0624 6.00716 12.0718 6.00627C12.1505 6.00932 12.225 6.04235 12.2801 6.09858L14.7382 8.55283M12.0754 13.6593V6.47384" stroke="#334155" stroke-linecap="round"/>
</svg>
