<svg width="13" height="9" viewBox="0 0 13 9" fill="none" xmlns="http://www.w3.org/2000/svg">
<path d="M8.2165 4.41797C8.2165 4.87263 8.02686 5.30866 7.6893 5.63015C7.35173 5.95164 6.89389 6.13225 6.4165 6.13225C5.93911 6.13225 5.48128 5.95164 5.14371 5.63015C4.80615 5.30866 4.6165 4.87263 4.6165 4.41797C4.6165 3.96331 4.80615 3.52728 5.14371 3.20579C5.48128 2.88429 5.93911 2.70368 6.4165 2.70368C6.89389 2.70368 7.35173 2.88429 7.6893 3.20579C8.02686 3.52728 8.2165 3.96331 8.2165 4.41797Z" stroke="#64748B" stroke-width="0.833333" stroke-linecap="round" stroke-linejoin="round"/>
<path d="M0.416504 4.41797C1.3765 2.07683 3.6181 0.417969 6.4165 0.417969C9.2149 0.417969 11.4565 2.07683 12.4165 4.41797C11.4565 6.75911 9.2149 8.41797 6.4165 8.41797C3.6181 8.41797 1.3765 6.75911 0.416504 4.41797Z" stroke="#64748B" stroke-width="0.833333" stroke-linecap="round" stroke-linejoin="round"/>
</svg>
