<svg width="15" height="15" viewBox="0 0 15 15" fill="none" xmlns="http://www.w3.org/2000/svg">
<path d="M10.1243 10.1253V10.1268L10.1247 6.8763C10.1249 5.77162 9.22941 4.87604 8.12474 4.87604H4.875V2.50119C4.875 1.39674 5.77024 0.501365 6.87469 0.501192L12.4997 0.500313C13.6044 0.50014 14.5 1.39562 14.5 2.50032V8.12541C14.5 9.23 13.6045 10.1254 12.4999 10.1254L10.1243 10.1253ZM4.875 4.87604H2.5C1.39543 4.87604 0.5 5.77147 0.5 6.87604V12.5C0.5 13.6046 1.39543 14.5 2.5 14.5H8.12469C9.22938 14.5 10.1249 13.6044 10.1247 12.4997L10.1243 10.1253" stroke="#64748B"/>
</svg>
