<svg width="20" height="20" viewBox="0 0 20 20" fill="none" xmlns="http://www.w3.org/2000/svg">
<path d="M15.9513 8.66C11.5447 8.05467 7.74467 11.3267 8 15.6667M4 10.7107C5.85333 10.454 7.51667 11.3493 8.416 12.7773M6.33333 7.33333C6.33333 7.68696 6.47381 8.02609 6.72386 8.27614C6.97391 8.52619 7.31304 8.66667 7.66667 8.66667C8.02029 8.66667 8.35943 8.52619 8.60948 8.27614C8.85952 8.02609 9 7.68696 9 7.33333C9 6.97971 8.85952 6.64057 8.60948 6.39052C8.35943 6.14048 8.02029 6 7.66667 6C7.31304 6 6.97391 6.14048 6.72386 6.39052C6.47381 6.64057 6.33333 6.97971 6.33333 7.33333ZM4 8.26667C4 6.77333 4 6.02667 4.29067 5.456C4.54633 4.95426 4.95426 4.54633 5.456 4.29067C6.02667 4 6.77333 4 8.26667 4H11.7333C13.2267 4 13.9733 4 14.544 4.29067C15.0457 4.54633 15.4537 4.95426 15.7093 5.456C16 6.02667 16 6.77333 16 8.26667V11.7333C16 13.2267 16 13.9733 15.7093 14.544C15.4537 15.0457 15.0457 15.4537 14.544 15.7093C13.9733 16 13.2267 16 11.7333 16H8.26667C6.77333 16 6.02667 16 5.456 15.7093C4.95426 15.4537 4.54633 15.0457 4.29067 14.544C4 13.9733 4 13.2267 4 11.7333V8.26667Z" stroke="#64748B" stroke-linecap="round" stroke-linejoin="round"/>
</svg>
