<svg width="24" height="24" viewBox="0 0 24 24" fill="none" xmlns="http://www.w3.org/2000/svg">
<path d="M8.92893 6.25068L4.24264 11.0922C3.91912 11.4265 3.91912 11.9684 4.24264 12.3026L9.51472 17.7493C9.83824 18.0836 10.3628 18.0836 10.6863 17.7493L15.3726 12.9078C15.6961 12.5735 15.6961 12.0316 15.3726 11.6974L10.1005 6.25068C9.77698 5.91644 9.25245 5.91644 8.92893 6.25068Z" stroke="#334155" stroke-linecap="round" stroke-linejoin="round"/>
<path d="M13.8995 6.25068L9.2132 11.0922C8.88968 11.4265 8.88968 11.9684 9.2132 12.3026L13.8995 17.1441C14.223 17.4784 14.7475 17.4784 15.0711 17.1441L19.7574 12.3026C20.0809 11.9684 20.0809 11.4265 19.7574 11.0922L15.0711 6.25068C14.7475 5.91644 14.223 5.91644 13.8995 6.25068Z" stroke="#334155" stroke-linecap="round" stroke-linejoin="round"/>
</svg>
