<svg width="20" height="20" viewBox="0 0 20 20" fill="none" xmlns="http://www.w3.org/2000/svg">
<path d="M4.29067 5.456C4 6.02667 4 6.77333 4 8.26667V11.7333C4 13.2267 4 13.9733 4.29067 14.544C4.54633 15.0457 4.95426 15.4537 5.456 15.7093C6.02667 16 6.77333 16 8.26667 16H11.7333C13.2267 16 13.9733 16 14.544 15.7093C15.0457 15.4537 15.4537 15.0457 15.7093 14.544C16 13.9733 16 13.2267 16 11.7333V8.26667C16 6.77333 16 6.02667 15.7093 5.456C15.4537 4.95426 15.0457 4.54633 14.544 4.29067C13.9733 4 13.2267 4 11.7333 4H8.26667C6.77333 4 6.02667 4 5.456 4.29067C4.95426 4.54633 4.54633 4.95426 4.29067 5.456Z" stroke="#64748B" stroke-linecap="round" stroke-linejoin="round"/>
</svg>
