<svg width="20" height="20" viewBox="0 0 20 20" fill="none" xmlns="http://www.w3.org/2000/svg">
<path d="M7.33333 2.44444V17.5556M17.5556 7.77778H2.44444M2 7.68889C2 5.69778 2 4.70222 2.38756 3.94133C2.72843 3.27234 3.27234 2.72843 3.94133 2.38756C4.70222 2 5.69778 2 7.68889 2H12.3111C14.3022 2 15.2978 2 16.0587 2.38756C16.7277 2.72843 17.2716 3.27234 17.6124 3.94133C18 4.70222 18 5.69778 18 7.68889V12.3111C18 14.3022 18 15.2978 17.6124 16.0587C17.2716 16.7277 16.7277 17.2716 16.0587 17.6124C15.2978 18 14.3022 18 12.3111 18H7.68889C5.69778 18 4.70222 18 3.94133 17.6124C3.27234 17.2716 2.72843 16.7277 2.38756 16.0587C2 15.2978 2 14.3022 2 12.3111V7.68889Z" stroke="#64748B" stroke-linecap="round" stroke-linejoin="round"/>
</svg>
