<svg width="12" height="16" viewBox="0 0 12 16" fill="none" xmlns="http://www.w3.org/2000/svg">
<path fill-rule="evenodd" clip-rule="evenodd" d="M3.69231 1.77778C3.69231 2.24927 3.4978 2.70146 3.15158 3.03486C2.80536 3.36825 2.33578 3.55556 1.84615 3.55556C1.35652 3.55556 0.886947 3.36825 0.540726 3.03486C0.194505 2.70146 0 2.24927 0 1.77778C0 1.30628 0.194505 0.854097 0.540726 0.520699C0.886947 0.187301 1.35652 0 1.84615 0C2.33578 0 2.80536 0.187301 3.15158 0.520699C3.4978 0.854097 3.69231 1.30628 3.69231 1.77778ZM1.84615 9.77778C2.33578 9.77778 2.80536 9.59048 3.15158 9.25708C3.4978 8.92368 3.69231 8.4715 3.69231 8C3.69231 7.5285 3.4978 7.07632 3.15158 6.74292C2.80536 6.40952 2.33578 6.22222 1.84615 6.22222C1.35652 6.22222 0.886947 6.40952 0.540726 6.74292C0.194505 7.07632 0 7.5285 0 8C0 8.4715 0.194505 8.92368 0.540726 9.25708C0.886947 9.59048 1.35652 9.77778 1.84615 9.77778ZM1.84615 16C2.33578 16 2.80536 15.8127 3.15158 15.4793C3.4978 15.1459 3.69231 14.6937 3.69231 14.2222C3.69231 13.7507 3.4978 13.2985 3.15158 12.9651C2.80536 12.6317 2.33578 12.4444 1.84615 12.4444C1.35652 12.4444 0.886947 12.6317 0.540726 12.9651C0.194505 13.2985 0 13.7507 0 14.2222C0 14.6937 0.194505 15.1459 0.540726 15.4793C0.886947 15.8127 1.35652 16 1.84615 16ZM12 1.77778C12 2.24927 11.8055 2.70146 11.4593 3.03486C11.1131 3.36825 10.6435 3.55556 10.1538 3.55556C9.66422 3.55556 9.19464 3.36825 8.84842 3.03486C8.5022 2.70146 8.30769 2.24927 8.30769 1.77778C8.30769 1.30628 8.5022 0.854097 8.84842 0.520699C9.19464 0.187301 9.66422 0 10.1538 0C10.6435 0 11.1131 0.187301 11.4593 0.520699C11.8055 0.854097 12 1.30628 12 1.77778ZM10.1538 9.77778C10.6435 9.77778 11.1131 9.59048 11.4593 9.25708C11.8055 8.92368 12 8.4715 12 8C12 7.5285 11.8055 7.07632 11.4593 6.74292C11.1131 6.40952 10.6435 6.22222 10.1538 6.22222C9.66422 6.22222 9.19464 6.40952 8.84842 6.74292C8.5022 7.07632 8.30769 7.5285 8.30769 8C8.30769 8.4715 8.5022 8.92368 8.84842 9.25708C9.19464 9.59048 9.66422 9.77778 10.1538 9.77778ZM10.1538 16C10.6435 16 11.1131 15.8127 11.4593 15.4793C11.8055 15.1459 12 14.6937 12 14.2222C12 13.7507 11.8055 13.2985 11.4593 12.9651C11.1131 12.6317 10.6435 12.4444 10.1538 12.4444C9.66422 12.4444 9.19464 12.6317 8.84842 12.9651C8.5022 13.2985 8.30769 13.7507 8.30769 14.2222C8.30769 14.6937 8.5022 15.1459 8.84842 15.4793C9.19464 15.8127 9.66422 16 10.1538 16Z" fill="#94A3B8"/>
</svg>
