<svg width="18" height="18" viewBox="0 0 18 18" fill="none" xmlns="http://www.w3.org/2000/svg">
<path d="M2.98739 16.7499L2.96635 17.4996L2.97693 17.4999L2.98751 17.4999L2.98739 16.7499ZM2.09533 16.5428L1.78389 17.2251H1.78389L2.09533 16.5428ZM1.35479 16.0047L0.801997 16.5115H0.801997L1.35479 16.0047ZM0.883026 15.2207L1.58978 14.9697H1.58978L0.883026 15.2207ZM0.754763 14.3151L1.50342 14.3599L1.50489 14.3354L1.50475 14.3109L0.754763 14.3151ZM1.50476 8.55435C1.50476 8.14014 1.16898 7.80435 0.754763 7.80435C0.340549 7.80435 0.00476295 8.14014 0.00476295 8.55435H0.754763H1.50476ZM16.7163 14.5184L15.9667 14.4897L15.9665 14.4994L16.7163 14.5184ZM16.5161 15.3978L15.832 15.0904L15.832 15.0904L16.5161 15.3978ZM15.9914 16.1318L15.4791 15.5839L15.4791 15.584L15.9914 16.1318ZM15.2236 16.6064L15.4847 17.3095H15.4847L15.2236 16.6064ZM14.3318 16.7481L14.3621 15.9987L14.3469 15.9981L14.3317 15.9981L14.3318 16.7481ZM9.12349 0.881434L8.58763 1.40625L8.59358 1.41218L9.12349 0.881434ZM8.84575 0.758353L8.87481 0.00891656L8.82468 0.00697291L8.77473 0.0117232L8.84575 0.758353ZM8.80735 0.753002L8.55133 1.45795L8.55135 1.45796L8.80735 0.753002ZM8.77073 0.758353L8.7981 1.50785L8.93756 1.50276L9.06585 1.44785L8.77073 0.758353ZM8.4921 0.881434L9.02212 1.41214L9.02786 1.40628L8.4921 0.881434ZM4.68551 3.6231C4.39243 3.9158 4.39212 4.39067 4.68482 4.68376C4.97752 4.97684 5.4524 4.97715 5.74548 4.68445L5.2155 4.15377L4.68551 3.6231ZM8.10049 10.9624C8.10049 11.3767 8.43628 11.7124 8.85049 11.7124C9.26471 11.7124 9.60049 11.3767 9.60049 10.9624H8.85049H8.10049ZM9.60049 1.38178C9.60049 0.96757 9.26471 0.631783 8.85049 0.631783C8.43628 0.631783 8.10049 0.96757 8.10049 1.38178H8.85049H9.60049ZM11.8711 4.68452C12.1642 4.97718 12.6391 4.97681 12.9317 4.68368C13.2244 4.39056 13.224 3.91569 12.9309 3.62302L12.401 4.15377L11.8711 4.68452ZM2.98739 16.7499L3.00843 16.0002C2.80051 15.9944 2.5959 15.9469 2.40678 15.8605L2.09533 16.5428L1.78389 17.2251C2.15568 17.3948 2.55779 17.4881 2.96635 17.4996L2.98739 16.7499ZM2.09533 16.5428L2.40678 15.8605C2.21766 15.7742 2.04791 15.6508 1.90758 15.4978L1.35479 16.0047L0.801997 16.5115C1.07818 16.8127 1.4121 17.0554 1.78389 17.2251L2.09533 16.5428ZM1.35479 16.0047L1.90758 15.4978C1.76725 15.3447 1.65919 15.1652 1.58978 14.9697L0.883026 15.2207L0.176269 15.4717C0.31301 15.8567 0.525815 16.2103 0.801997 16.5115L1.35479 16.0047ZM0.883026 15.2207L1.58978 14.9697C1.52037 14.7743 1.49101 14.5669 1.50342 14.3599L0.754763 14.3151L0.00610709 14.2702C-0.0183447 14.678 0.0395281 15.0866 0.176269 15.4717L0.883026 15.2207ZM0.754763 14.3151L1.50475 14.3109C1.49405 12.3931 1.50476 10.4805 1.50476 8.55435H0.754763H0.00476295C0.00476295 10.4687 -0.00595564 12.3966 0.00477463 14.3192L0.754763 14.3151ZM16.7163 8.55435H15.9663C15.9663 10.5785 16.0421 12.5247 15.9668 14.4897L16.7163 14.5184L17.4657 14.5471C17.5423 12.5486 17.4663 10.4973 17.4663 8.55435H16.7163ZM16.7163 14.5184L15.9665 14.4994C15.9613 14.7034 15.9156 14.9042 15.832 15.0904L16.5161 15.3978L17.2002 15.7052C17.3655 15.3374 17.4558 14.9404 17.466 14.5374L16.7163 14.5184ZM16.5161 15.3978L15.832 15.0904C15.7483 15.2766 15.6284 15.4444 15.4791 15.5839L15.9914 16.1318L16.5037 16.6796C16.7982 16.4042 17.035 16.0729 17.2002 15.7052L16.5161 15.3978ZM15.9914 16.1318L15.4791 15.584C15.3299 15.7235 15.1543 15.8321 14.9625 15.9033L15.2236 16.6064L15.4847 17.3095C15.8628 17.1691 16.2091 16.955 16.5037 16.6796L15.9914 16.1318ZM15.2236 16.6064L14.9625 15.9033C14.7707 15.9746 14.5666 16.007 14.3621 15.9987L14.3318 16.7481L14.3015 17.4975C14.7045 17.5138 15.1067 17.4499 15.4847 17.3095L15.2236 16.6064ZM14.3318 16.7481L14.3317 15.9981L2.98727 15.9999L2.98739 16.7499L2.98751 17.4999L14.3319 17.4981L14.3318 16.7481ZM9.12349 0.881434L9.65931 0.356652C9.45175 0.144726 9.171 0.0204006 8.87481 0.00891656L8.84575 0.758353L8.81669 1.50779C8.73035 1.50444 8.64838 1.4682 8.58767 1.40622L9.12349 0.881434ZM8.84575 0.758353L8.77473 0.0117232C8.88462 0.00127184 8.98346 0.0190331 9.06335 0.0480459L8.80735 0.753002L8.55135 1.45796C8.65744 1.49648 8.78188 1.51781 8.91677 1.50498L8.84575 0.758353ZM8.80735 0.753002L9.06337 0.0480519C9.0143 0.030233 8.94121 0.00886267 8.85066 0.00213641C8.75224 -0.0051744 8.65673 0.00651568 8.56825 0.0334124C8.4916 0.0567102 8.43468 0.0879173 8.42909 0.090867C8.41195 0.0999041 8.44345 0.0826231 8.47562 0.0688559L8.77073 0.758353L9.06585 1.44785C9.10427 1.43141 9.14101 1.41123 9.12884 1.41765C9.12822 1.41798 9.07599 1.44684 9.00448 1.46858C8.92113 1.49391 8.8312 1.50482 8.73954 1.49801C8.65574 1.49179 8.59057 1.4722 8.55133 1.45795L8.80735 0.753002ZM8.77073 0.758353L8.74337 0.0088529C8.44629 0.0197001 8.16453 0.144075 7.95635 0.356585L8.4921 0.881434L9.02786 1.40628C8.96697 1.46844 8.8847 1.50469 8.7981 1.50785L8.77073 0.758353ZM8.4921 0.881434L7.96212 0.350759L4.68551 3.6231L5.2155 4.15377L5.74548 4.68445L9.02209 1.41211L8.4921 0.881434ZM8.85049 10.9624H9.60049V1.38178H8.85049H8.10049V10.9624H8.85049ZM12.401 4.15377L12.9309 3.62302L9.6534 0.350686L9.12349 0.881434L8.59358 1.41218L11.8711 4.68452L12.401 4.15377Z" fill="white"/>
</svg>
