<svg width="20" height="20" viewBox="0 0 20 20" fill="none" xmlns="http://www.w3.org/2000/svg">
<path d="M10.1307 10.2304L8.68 6.45901C8.65823 6.40242 8.61982 6.35375 8.56984 6.31942C8.51985 6.28509 8.46064 6.26671 8.4 6.26671C8.33936 6.26671 8.28015 6.28509 8.23016 6.31942C8.18018 6.35375 8.14177 6.40242 8.12 6.45901L6.66933 10.2304C6.65427 10.2695 6.63114 10.3051 6.60146 10.3348C6.57177 10.3645 6.53618 10.3876 6.497 10.4027L2.72567 11.8534C2.66907 11.8751 2.6204 11.9135 2.58607 11.9635C2.55175 12.0135 2.53337 12.0727 2.53337 12.1334C2.53337 12.194 2.55175 12.2532 2.58607 12.3032C2.6204 12.3532 2.66907 12.3916 2.72567 12.4134L6.497 13.864C6.53618 13.8791 6.57177 13.9022 6.60146 13.9319C6.63114 13.9616 6.65427 13.9972 6.66933 14.0364L8.12 17.8077C8.14177 17.8643 8.18018 17.913 8.23016 17.9473C8.28015 17.9816 8.33936 18 8.4 18C8.46064 18 8.51985 17.9816 8.56984 17.9473C8.61982 17.913 8.65823 17.8643 8.68 17.8077L10.1307 14.0364C10.1457 13.9972 10.1689 13.9616 10.1985 13.9319C10.2282 13.9022 10.2638 13.8791 10.303 13.864L14.0743 12.4134C14.1309 12.3916 14.1796 12.3532 14.2139 12.3032C14.2483 12.2532 14.2666 12.194 14.2666 12.1334C14.2666 12.0727 14.2483 12.0135 14.2139 11.9635C14.1796 11.9135 14.1309 11.8751 14.0743 11.8534L10.303 10.4027C10.2638 10.3876 10.2282 10.3645 10.1985 10.3348C10.1689 10.3051 10.1457 10.2695 10.1307 10.2304ZM5.06667 3.73334L4.4 2L3.73333 3.73334L2 4.40001L3.73333 5.06667L4.4 6.80001L5.06667 5.06667L6.8 4.40001L5.06667 3.73334ZM15.689 5.37767L14.8 3.06667L13.911 5.37767L11.6 6.26668L13.911 7.15568L14.8 9.46668L15.689 7.15568L18 6.26668L15.689 5.37767Z" stroke="#64748B" stroke-linecap="round" stroke-linejoin="round"/>
</svg>
