<svg width="16" height="16" viewBox="0 0 16 16" fill="none" xmlns="http://www.w3.org/2000/svg">
<path d="M5.64706 7.27778V6.05556C5.64706 4.36828 6.37588 3 8 3C9.62412 3 10.3529 4.36828 10.3529 6.05556V7.27778M3 12.0444V9.23333C3 8.54889 3 8.20667 3.12824 7.94572C3.24093 7.71553 3.42091 7.52834 3.64235 7.411C3.89412 7.27839 4.22353 7.27839 4.88235 7.27839H11.1176C11.7765 7.27839 12.1059 7.27839 12.3576 7.411C12.579 7.52818 12.759 7.71515 12.8718 7.94511C13 8.20667 13 8.54889 13 9.23333V12.0444C13 12.7289 13 13.0711 12.8718 13.3327C12.759 13.5626 12.579 13.7496 12.3576 13.8668C12.1059 14 11.7765 14 11.1176 14H4.88235C4.22353 14 3.89412 14 3.64235 13.8668C3.421 13.7496 3.24103 13.5626 3.12824 13.3327C3 13.0717 3 12.7295 3 12.0444Z" stroke="#94A3B8" stroke-linecap="round" stroke-linejoin="round"/>
</svg>
