<svg width="17" height="17" viewBox="0 0 17 17" fill="none" xmlns="http://www.w3.org/2000/svg">
<path d="M3.16667 16.5H13.5C15.1569 16.5 16.5 15.1569 16.5 13.5V3.5C16.5 1.84315 15.1569 0.5 13.5 0.5H3.5C1.84315 0.5 0.5 1.84315 0.5 3.5V13.8333C0.5 15.3061 1.69391 16.5 3.16667 16.5ZM3.16667 16.5L11.2431 8.42356C11.5765 8.09027 12.0286 7.90305 12.5 7.90305C12.9714 7.90305 13.4235 8.09027 13.7569 8.42356L16.5 11.1667M7.61111 5.83333C7.61111 6.81517 6.81517 7.61111 5.83333 7.61111C4.85149 7.61111 4.05556 6.81517 4.05556 5.83333C4.05556 4.85149 4.85149 4.05556 5.83333 4.05556C6.81517 4.05556 7.61111 4.85149 7.61111 5.83333Z" stroke="#64748B" stroke-linecap="round" stroke-linejoin="round"/>
</svg>
