<svg width="14" height="14" viewBox="0 0 14 14" fill="none" xmlns="http://www.w3.org/2000/svg">
<path d="M12.9167 13.332C13.1468 13.332 13.3333 13.1455 13.3333 12.9154C13.3333 12.6852 13.1468 12.4987 12.9167 12.4987H0.416667C0.186548 12.4987 0 12.6852 0 12.9154C0 13.1455 0.186548 13.332 0.416667 13.332H12.9167Z" fill="#475569"/>
<path d="M9.16667 11.6654C10.0871 11.6654 10.8333 10.9192 10.8333 9.9987V4.9987C10.8333 4.07822 10.0871 3.33203 9.16667 3.33203C8.24619 3.33203 7.5 4.07822 7.5 4.9987V9.9987C7.5 10.9192 8.24619 11.6654 9.16667 11.6654Z" fill="#475569"/>
<path d="M4.16667 11.6654C5.08714 11.6654 5.83333 10.9192 5.83333 9.9987V1.66537C5.83333 0.74489 5.08714 -0.00130177 4.16667 -0.00130177C3.24619 -0.00130177 2.5 0.74489 2.5 1.66537V9.9987C2.5 10.9192 3.24619 11.6654 4.16667 11.6654Z" fill="#475569"/>
</svg>
