<svg width="14" height="14" viewBox="0 0 14 14" fill="none" xmlns="http://www.w3.org/2000/svg">
<path d="M12.9167 0C13.1468 0 13.3333 0.186548 13.3333 0.416667C13.3333 0.646785 13.1468 0.833333 12.9167 0.833333H0.416667C0.186548 0.833333 0 0.646785 0 0.416667C0 0.186548 0.186548 0 0.416667 0H12.9167Z" fill="#475569"/>
<path d="M9.16667 1.66667C10.0871 1.66667 10.8333 2.41286 10.8333 3.33333V8.33333C10.8333 9.25381 10.0871 10 9.16667 10C8.24619 10 7.5 9.25381 7.5 8.33333V3.33333C7.5 2.41286 8.24619 1.66667 9.16667 1.66667Z" fill="#475569"/>
<path d="M4.16667 1.66667C5.08714 1.66667 5.83333 2.41286 5.83333 3.33333V11.6667C5.83333 12.5871 5.08714 13.3333 4.16667 13.3333C3.24619 13.3333 2.5 12.5871 2.5 11.6667V3.33333C2.5 2.41286 3.24619 1.66667 4.16667 1.66667Z" fill="#475569"/>
</svg>
