<svg width="14" height="13" viewBox="0 0 14 13" fill="none" xmlns="http://www.w3.org/2000/svg">
<path d="M4.16667 0C3.24619 0 2.5 0.799491 2.5 1.78571L2.5 10.7143C2.5 11.7005 3.24619 12.5 4.16667 12.5C5.08714 12.5 5.83333 11.7005 5.83333 10.7143L5.83333 1.78571C5.83333 0.799491 5.08714 0 4.16667 0Z" fill="#475569"/>
<path d="M9.16667 1.66667C8.24619 1.66667 7.5 2.48748 7.5 3.5L7.5 9C7.5 10.0125 8.24619 10.8333 9.16667 10.8333C10.0871 10.8333 10.8333 10.0125 10.8333 9V3.5C10.8333 2.48748 10.0871 1.66667 9.16667 1.66667Z" fill="#475569"/>
<path d="M0.416667 5.83333C0.186548 5.83333 0 6.01988 0 6.25C0 6.48012 0.186548 6.66667 0.416667 6.66667H12.9167C13.1468 6.66667 13.3333 6.48012 13.3333 6.25C13.3333 6.01988 13.1468 5.83333 12.9167 5.83333H0.416667Z" fill="#475569"/>
</svg>
