<svg width="24" height="24" viewBox="0 0 24 24" fill="none" xmlns="http://www.w3.org/2000/svg">
<g opacity="0.7">
<rect x="0.25" y="0.25" width="23.5" height="23.5" rx="11.75" fill="#0F172A"/>
<rect x="0.25" y="0.25" width="23.5" height="23.5" rx="11.75" stroke="#334155" stroke-width="0.5"/>
<path d="M15.1667 11.2619H16.1667C16.6667 11.2619 17 11.5714 17 12.0357V17.2262C17 17.6905 16.6667 18 16.1667 18H7.83333C7.33333 18 7 17.6905 7 17.2262V12.0357C7 11.5714 7.33333 11.2619 7.83333 11.2619H8.83333M15.1667 11.2619V8.94048C15.1667 7.31548 13.75 6 12 6C10.25 6 8.83333 7.31548 8.83333 8.94048V11.2619M15.1667 11.2619H8.83333" stroke="#CBD5E1"/>
</g>
</svg>
