<svg width="6" height="13" viewBox="0 0 6 13" fill="none" xmlns="http://www.w3.org/2000/svg">
<path d="M2.05102 5.33676L1.20217 6.16674L2.05102 6.99673L1.20217 7.82672L2.05102 8.65671L1.48512 9.21003V10.3167L2.89987 11.7L4.03168 10.5933V4.91623C4.2354 4.8111 4.42781 4.67277 4.59758 4.50677C5.53414 3.59101 5.53414 2.10257 4.59758 1.18682C3.66101 0.271062 2.13874 0.271062 1.20217 1.18682C0.918804 1.46442 0.711019 1.80696 0.597765 2.18322C0.48451 2.55948 0.46939 2.95747 0.553784 3.3409C0.638177 3.72434 0.819399 4.08101 1.08092 4.37841C1.34245 4.6758 1.67595 4.90445 2.05102 5.04349V5.33676ZM2.61692 2.57013C2.54188 2.49675 2.49972 2.39723 2.49972 2.29347C2.49972 2.1897 2.54188 2.09018 2.61692 2.0168C2.69197 1.94343 2.79375 1.90221 2.89987 1.90221C3.006 1.90221 3.10778 1.94343 3.18282 2.0168C3.25787 2.09018 3.30003 2.1897 3.30003 2.29347C3.30003 2.39723 3.25787 2.49675 3.18282 2.57013C3.10778 2.6435 3.006 2.68473 2.89987 2.68473C2.79375 2.68473 2.69197 2.6435 2.61692 2.57013Z" stroke="#64748B"/>
</svg>
