<svg width="16" height="16" viewBox="0 0 16 16" fill="none" xmlns="http://www.w3.org/2000/svg">
<path d="M2.6665 5C2.48241 5 2.33317 5.14924 2.33317 5.33333C2.33317 5.51743 2.48241 5.66667 2.6665 5.66667V5.33333V5ZM8.6665 5.66667C8.8506 5.66667 8.99984 5.51743 8.99984 5.33333C8.99984 5.14924 8.8506 5 8.6665 5V5.33333V5.66667ZM11.3332 5C11.1491 5 10.9998 5.14924 10.9998 5.33333C10.9998 5.51743 11.1491 5.66667 11.3332 5.66667V5.33333V5ZM13.3332 5.66667C13.5173 5.66667 13.6665 5.51743 13.6665 5.33333C13.6665 5.14924 13.5173 5 13.3332 5V5.33333V5.66667ZM13.3332 11C13.5173 11 13.6665 10.8508 13.6665 10.6667C13.6665 10.4826 13.5173 10.3333 13.3332 10.3333V10.6667V11ZM2.6665 10.3333C2.48241 10.3333 2.33317 10.4826 2.33317 10.6667C2.33317 10.8508 2.48241 11 2.6665 11V10.6667V10.3333ZM2.6665 5.33333V5.66667H8.6665V5.33333V5H2.6665V5.33333ZM11.3332 5.33333V5.66667H13.3332V5.33333V5H11.3332V5.33333ZM7.33317 10.6667V11H13.3332V10.6667V10.3333H7.33317V10.6667ZM2.6665 10.6667V11H4.6665V10.6667V10.3333H2.6665V10.6667ZM7.33317 10.6667H6.99984C6.99984 11.219 6.55212 11.6667 5.99984 11.6667V12V12.3333C6.92031 12.3333 7.6665 11.5871 7.6665 10.6667H7.33317ZM5.99984 12V11.6667C5.44755 11.6667 4.99984 11.219 4.99984 10.6667H4.6665H4.33317C4.33317 11.5871 5.07936 12.3333 5.99984 12.3333V12ZM4.6665 10.6667H4.99984C4.99984 10.1144 5.44755 9.66667 5.99984 9.66667V9.33333V9C5.07936 9 4.33317 9.74619 4.33317 10.6667H4.6665ZM5.99984 9.33333V9.66667C6.55212 9.66667 6.99984 10.1144 6.99984 10.6667H7.33317H7.6665C7.6665 9.74619 6.92031 9 5.99984 9V9.33333ZM11.3345 5.33333H11.0011C11.0011 5.88562 10.5534 6.33333 10.0011 6.33333V6.66667V7C10.9216 7 11.6678 6.25381 11.6678 5.33333H11.3345ZM10.0011 6.66667V6.33333C9.44886 6.33333 9.00114 5.88562 9.00114 5.33333H8.66781H8.33447C8.33447 6.25381 9.08067 7 10.0011 7V6.66667ZM8.66781 5.33333H9.00114C9.00114 4.78105 9.44886 4.33333 10.0011 4.33333V4V3.66667C9.08067 3.66667 8.33447 4.41286 8.33447 5.33333H8.66781ZM10.0011 4V4.33333C10.5534 4.33333 11.0011 4.78105 11.0011 5.33333H11.3345H11.6678C11.6678 4.41286 10.9216 3.66667 10.0011 3.66667V4Z" fill="#64748B"/>
</svg>
