<svg width="14" height="14" viewBox="0 0 14 14" fill="none" xmlns="http://www.w3.org/2000/svg">
<path d="M0 0.416667C0 0.186548 0.186548 0 0.416667 0C0.646785 0 0.833333 0.186548 0.833333 0.416667V12.9167C0.833333 13.1468 0.646785 13.3333 0.416667 13.3333C0.186548 13.3333 0 13.1468 0 12.9167V0.416667Z" fill="#475569"/>
<path d="M1.66667 4.16667C1.66667 3.24619 2.41286 2.5 3.33333 2.5H11.6667C12.5871 2.5 13.3333 3.24619 13.3333 4.16667C13.3333 5.08714 12.5871 5.83333 11.6667 5.83333H3.33333C2.41286 5.83333 1.66667 5.08714 1.66667 4.16667Z" fill="#475569"/>
<path d="M1.66667 9.16667C1.66667 8.24619 2.41286 7.5 3.33333 7.5H8.33333C9.25381 7.5 10 8.24619 10 9.16667C10 10.0871 9.25381 10.8333 8.33333 10.8333H3.33333C2.41286 10.8333 1.66667 10.0871 1.66667 9.16667Z" fill="#475569"/>
</svg>
