<svg width="13" height="14" viewBox="0 0 13 14" fill="none" xmlns="http://www.w3.org/2000/svg">
<path d="M0 4.16667C0 3.24619 0.799491 2.5 1.78571 2.5H10.7143C11.7005 2.5 12.5 3.24619 12.5 4.16667C12.5 5.08714 11.7005 5.83333 10.7143 5.83333H1.78571C0.799491 5.83333 0 5.08714 0 4.16667Z" fill="#475569"/>
<path d="M1.66667 9.16667C1.66667 8.24619 2.48748 7.5 3.5 7.5H9C10.0125 7.5 10.8333 8.24619 10.8333 9.16667C10.8333 10.0871 10.0125 10.8333 9 10.8333H3.5C2.48748 10.8333 1.66667 10.0871 1.66667 9.16667Z" fill="#475569"/>
<path d="M5.83333 0.416667C5.83333 0.186548 6.01988 0 6.25 0C6.48012 0 6.66667 0.186548 6.66667 0.416667V12.9167C6.66667 13.1468 6.48012 13.3333 6.25 13.3333C6.01988 13.3333 5.83333 13.1468 5.83333 12.9167V0.416667Z" fill="#475569"/>
</svg>
