<svg width="14" height="14" viewBox="0 0 14 14" fill="none" xmlns="http://www.w3.org/2000/svg">
<path d="M13.3333 0.416667C13.3333 0.186548 13.1468 0 12.9167 0C12.6865 0 12.5 0.186548 12.5 0.416667V12.9167C12.5 13.1468 12.6865 13.3333 12.9167 13.3333C13.1468 13.3333 13.3333 13.1468 13.3333 12.9167V0.416667Z" fill="#475569"/>
<path d="M11.6667 4.16667C11.6667 3.24619 10.9205 2.5 10 2.5H1.66667C0.746192 2.5 0 3.24619 0 4.16667C0 5.08714 0.746192 5.83333 1.66667 5.83333H10C10.9205 5.83333 11.6667 5.08714 11.6667 4.16667Z" fill="#475569"/>
<path d="M11.6667 9.16667C11.6667 8.24619 10.9205 7.5 10 7.5H5C4.07953 7.5 3.33333 8.24619 3.33333 9.16667C3.33333 10.0871 4.07953 10.8333 5 10.8333H10C10.9205 10.8333 11.6667 10.0871 11.6667 9.16667Z" fill="#475569"/>
</svg>
