<svg width="16" height="16" viewBox="0 0 16 16" fill="none" xmlns="http://www.w3.org/2000/svg">
<path d="M7.15063 7.23519L6.30178 8.06518L7.15063 8.89517L6.30178 9.72516L7.15063 10.5551L6.58473 11.1085V12.2151L7.99948 13.5984L9.13128 12.4918V6.81467C9.33501 6.70953 9.52742 6.5712 9.69719 6.40521C10.6338 5.48945 10.6338 4.00101 9.69719 3.08525C8.76062 2.1695 7.23835 2.1695 6.30178 3.08525C6.01841 3.36285 5.81063 3.7054 5.69737 4.08166C5.58412 4.45791 5.569 4.85591 5.65339 5.23934C5.73779 5.62277 5.91901 5.97945 6.18053 6.27684C6.44206 6.57424 6.77556 6.80288 7.15063 6.94193V7.23519ZM7.71653 4.46857C7.64149 4.39519 7.59933 4.29567 7.59933 4.1919C7.59933 4.08814 7.64149 3.98862 7.71653 3.91524C7.79158 3.84187 7.89336 3.80064 7.99948 3.80064C8.10561 3.80064 8.20739 3.84187 8.28243 3.91524C8.35748 3.98862 8.39964 4.08814 8.39964 4.1919C8.39964 4.29567 8.35748 4.39519 8.28243 4.46857C8.20739 4.54194 8.10561 4.58316 7.99948 4.58316C7.89336 4.58316 7.79158 4.54194 7.71653 4.46857Z" stroke="#94A3B8"/>
</svg>
