<svg width="24" height="24" viewBox="0 0 24 24" fill="none" xmlns="http://www.w3.org/2000/svg">
<path d="M10.8223 5.6613C10.9423 5.46009 11.1142 5.29314 11.3208 5.1771C11.5275 5.06106 11.7617 5 12 5C12.2383 5 12.4725 5.06106 12.6792 5.1771C12.8858 5.29314 13.0577 5.46009 13.1777 5.6613L14.8299 8.43168C14.925 8.59157 15.0531 8.73036 15.2061 8.83921C15.3591 8.94806 15.5337 9.02458 15.7186 9.06389L18.9265 9.74228C19.1593 9.79175 19.3748 9.89999 19.5515 10.0562C19.7282 10.2124 19.8599 10.4112 19.9334 10.6326C20.007 10.8541 20.0198 11.0905 19.9707 11.3183C19.9216 11.5461 19.8122 11.7574 19.6535 11.9311L17.468 14.3223C17.3419 14.4601 17.2466 14.6221 17.188 14.7979C17.1295 14.9737 17.1091 15.1595 17.1281 15.3434L17.458 18.5338C17.482 18.7655 17.4434 18.9994 17.3461 19.212C17.2487 19.4246 17.096 19.6086 16.9032 19.7455C16.7103 19.8825 16.4841 19.9676 16.2471 19.9924C16.01 20.0172 15.7705 19.9809 15.5523 19.887L12.5498 18.5942C12.3766 18.5195 12.1893 18.481 12 18.481C11.8107 18.481 11.6234 18.5195 11.4502 18.5942L8.44769 19.887C8.22953 19.9809 7.98998 20.0172 7.75294 19.9924C7.51591 19.9676 7.28969 19.8825 7.09684 19.7455C6.904 19.6086 6.75128 19.4246 6.65393 19.212C6.55658 18.9994 6.518 18.7655 6.54204 18.5338L6.87192 15.3434C6.89102 15.1595 6.87074 14.9738 6.81239 14.798C6.75403 14.6222 6.65887 14.4602 6.53296 14.3223L4.3465 11.9311C4.18777 11.7574 4.07839 11.5461 4.02927 11.3183C3.98016 11.0905 3.99302 10.8541 4.06657 10.6326C4.14013 10.4112 4.27181 10.2124 4.44849 10.0562C4.62516 9.89999 4.84066 9.79175 5.0735 9.74228L8.28139 9.06389C8.46642 9.02479 8.64109 8.94846 8.79426 8.83977C8.94744 8.73107 9.07576 8.59239 9.17106 8.43257L10.8223 5.6613Z" stroke="#64748B" stroke-linecap="round" stroke-linejoin="round"/>
</svg>
