<svg width="16" height="16" viewBox="0 0 16 16" fill="none" xmlns="http://www.w3.org/2000/svg">
<path d="M8 6.5C8 5.3215 8 4.732 7.634 4.366C7.268 4 6.6785 4 5.5 4C4.3215 4 3.732 4 3.366 4.366C3 4.732 3 5.3215 3 6.5M11.25 3L10 4.25L11.25 5.5M10.5 4.25C11.6785 4.25 12.2675 4.25 12.634 4.616C13.0005 4.982 13 5.5715 13 6.75M5.5 13H9.5C10.6785 13 11.2675 13 11.634 12.634C12 12.2675 12 11.6785 12 10.5C12 9.3215 12 8.732 11.634 8.366C11.2675 8 10.6785 8 9.5 8H5.5C4.3215 8 3.732 8 3.366 8.366C3 8.732 3 9.3215 3 10.5C3 11.6785 3 12.2675 3.366 12.634C3.732 13.0005 4.3215 13 5.5 13Z" stroke="#94A3B8" stroke-linecap="round" stroke-linejoin="round"/>
</svg>
