<svg width="24" height="24" viewBox="0 0 24 24" fill="none" xmlns="http://www.w3.org/2000/svg">
<path fill-rule="evenodd" clip-rule="evenodd" d="M10.0253 5.77778C10.0253 6.24927 9.83081 6.70146 9.48459 7.03486C9.13837 7.36825 8.66879 7.55556 8.17916 7.55556C7.68953 7.55556 7.21995 7.36825 6.87373 7.03486C6.52751 6.70146 6.33301 6.24927 6.33301 5.77778C6.33301 5.30628 6.52751 4.8541 6.87373 4.5207C7.21995 4.1873 7.68953 4 8.17916 4C8.66879 4 9.13837 4.1873 9.48459 4.5207C9.83081 4.8541 10.0253 5.30628 10.0253 5.77778ZM8.17916 13.7778C8.66879 13.7778 9.13837 13.5905 9.48459 13.2571C9.83081 12.9237 10.0253 12.4715 10.0253 12C10.0253 11.5285 9.83081 11.0763 9.48459 10.7429C9.13837 10.4095 8.66879 10.2222 8.17916 10.2222C7.68953 10.2222 7.21995 10.4095 6.87373 10.7429C6.52751 11.0763 6.33301 11.5285 6.33301 12C6.33301 12.4715 6.52751 12.9237 6.87373 13.2571C7.21995 13.5905 7.68953 13.7778 8.17916 13.7778ZM8.17916 20C8.66879 20 9.13837 19.8127 9.48459 19.4793C9.83081 19.1459 10.0253 18.6937 10.0253 18.2222C10.0253 17.7507 9.83081 17.2985 9.48459 16.9651C9.13837 16.6317 8.66879 16.4444 8.17916 16.4444C7.68953 16.4444 7.21995 16.6317 6.87373 16.9651C6.52751 17.2985 6.33301 17.7507 6.33301 18.2222C6.33301 18.6937 6.52751 19.1459 6.87373 19.4793C7.21995 19.8127 7.68953 20 8.17916 20ZM18.333 5.77778C18.333 6.24927 18.1385 6.70146 17.7923 7.03486C17.4461 7.36825 16.9765 7.55556 16.4869 7.55556C15.9972 7.55556 15.5276 7.36825 15.1814 7.03486C14.8352 6.70146 14.6407 6.24927 14.6407 5.77778C14.6407 5.30628 14.8352 4.8541 15.1814 4.5207C15.5276 4.1873 15.9972 4 16.4869 4C16.9765 4 17.4461 4.1873 17.7923 4.5207C18.1385 4.8541 18.333 5.30628 18.333 5.77778ZM16.4869 13.7778C16.9765 13.7778 17.4461 13.5905 17.7923 13.2571C18.1385 12.9237 18.333 12.4715 18.333 12C18.333 11.5285 18.1385 11.0763 17.7923 10.7429C17.4461 10.4095 16.9765 10.2222 16.4869 10.2222C15.9972 10.2222 15.5276 10.4095 15.1814 10.7429C14.8352 11.0763 14.6407 11.5285 14.6407 12C14.6407 12.4715 14.8352 12.9237 15.1814 13.2571C15.5276 13.5905 15.9972 13.7778 16.4869 13.7778ZM16.4869 20C16.9765 20 17.4461 19.8127 17.7923 19.4793C18.1385 19.1459 18.333 18.6937 18.333 18.2222C18.333 17.7507 18.1385 17.2985 17.7923 16.9651C17.4461 16.6317 16.9765 16.4444 16.4869 16.4444C15.9972 16.4444 15.5276 16.6317 15.1814 16.9651C14.8352 17.2985 14.6407 17.7507 14.6407 18.2222C14.6407 18.6937 14.8352 19.1459 15.1814 19.4793C15.5276 19.8127 15.9972 20 16.4869 20Z" fill="#E2E8F0"/>
</svg>
