<svg width="16" height="16" viewBox="0 0 16 16" fill="none" xmlns="http://www.w3.org/2000/svg">
<rect width="16" height="16" rx="8" fill="#F1F5F9" fill-opacity="0.4"/>
<path d="M7.23308 3.77681C7.31125 3.64266 7.42323 3.53136 7.55785 3.454C7.69246 3.37665 7.845 3.33594 8.00026 3.33594C8.15552 3.33594 8.30807 3.37665 8.44268 3.454C8.57729 3.53136 8.68927 3.64266 8.76744 3.77681L9.84363 5.62372C9.90558 5.73032 9.98905 5.82285 10.0887 5.89541C10.1884 5.96798 10.3021 6.01899 10.4226 6.0452L12.5122 6.49746C12.6639 6.53043 12.8042 6.6026 12.9193 6.70674C13.0344 6.81089 13.1202 6.94339 13.1681 7.09102C13.216 7.23866 13.2244 7.39627 13.1924 7.54815C13.1604 7.70004 13.0892 7.84088 12.9858 7.95664L11.5621 9.55079C11.48 9.64268 11.4179 9.75066 11.3797 9.86787C11.3416 9.98507 11.3283 10.1089 11.3407 10.2315L11.5556 12.3585C11.5712 12.513 11.5461 12.6689 11.4827 12.8106C11.4193 12.9524 11.3198 13.075 11.1942 13.1663C11.0686 13.2576 10.9212 13.3143 10.7668 13.3309C10.6124 13.3474 10.4563 13.3232 10.3142 13.2606L8.3584 12.3987C8.24555 12.349 8.12358 12.3233 8.00026 12.3233C7.87694 12.3233 7.75497 12.349 7.64213 12.3987L5.68629 13.2606C5.54418 13.3232 5.38813 13.3474 5.23373 13.3309C5.07933 13.3143 4.93196 13.2576 4.80635 13.1663C4.68073 13.075 4.58125 12.9524 4.51784 12.8106C4.45442 12.6689 4.42929 12.513 4.44495 12.3585L4.65983 10.2315C4.67227 10.109 4.65907 9.98513 4.62105 9.86793C4.58304 9.75073 4.52105 9.64273 4.43903 9.55079L3.01477 7.95664C2.91137 7.84088 2.84013 7.70004 2.80813 7.54815C2.77614 7.39627 2.78451 7.23866 2.83243 7.09102C2.88034 6.94339 2.96612 6.81089 3.08121 6.70674C3.19629 6.6026 3.33667 6.53043 3.48834 6.49746L5.57796 6.0452C5.69849 6.01913 5.81227 5.96825 5.91205 5.89578C6.01182 5.82332 6.09541 5.73087 6.15749 5.62432L7.23308 3.77681Z" fill="#F59E0B"/>
</svg>
