<svg width="16" height="16" viewBox="0 0 16 16" fill="none" xmlns="http://www.w3.org/2000/svg">
<rect width="16" height="16" rx="8" fill="#1F6FEB"/>
<path d="M4.11111 7C3.5 7 3 7.45 3 8C3 8.55 3.5 9 4.11111 9C4.72222 9 5.22222 8.55 5.22222 8C5.22222 7.45 4.72222 7 4.11111 7ZM11.8889 7C11.2778 7 10.7778 7.45 10.7778 8C10.7778 8.55 11.2778 9 11.8889 9C12.5 9 13 8.55 13 8C13 7.45 12.5 7 11.8889 7ZM8 7C7.38889 7 6.88889 7.45 6.88889 8C6.88889 8.55 7.38889 9 8 9C8.61111 9 9.11111 8.55 9.11111 8C9.11111 7.45 8.61111 7 8 7Z" fill="white"/>
</svg>
