<svg width="16" height="16" viewBox="0 0 16 16" fill="none" xmlns="http://www.w3.org/2000/svg">
<rect width="16" height="16" rx="8" fill="#F1F5F9" fill-opacity="0.4"/>
<path d="M7.23259 3.7729C7.31077 3.63876 7.42274 3.52746 7.55736 3.4501C7.69197 3.37274 7.84452 3.33203 7.99977 3.33203C8.15503 3.33203 8.30758 3.37274 8.44219 3.4501C8.57681 3.52746 8.68878 3.63876 8.76695 3.7729L9.84314 5.61982C9.90509 5.72641 9.98856 5.81894 10.0882 5.8915C10.1879 5.96407 10.3016 6.01508 10.4221 6.04129L12.5117 6.49355C12.6634 6.52653 12.8037 6.59869 12.9188 6.70284C13.0339 6.80698 13.1197 6.93948 13.1676 7.08712C13.2155 7.23475 13.2239 7.39237 13.1919 7.54425C13.1599 7.69613 13.0887 7.83697 12.9853 7.95273L11.5616 9.54688C11.4795 9.63877 11.4174 9.74676 11.3793 9.86396C11.3411 9.98116 11.3278 10.105 11.3402 10.2276L11.5551 12.3545C11.5707 12.509 11.5456 12.6649 11.4822 12.8067C11.4188 12.9484 11.3193 13.0711 11.1937 13.1624C11.0681 13.2537 10.9207 13.3104 10.7663 13.327C10.6119 13.3435 10.4559 13.3193 10.3137 13.2567L8.35791 12.3948C8.24506 12.3451 8.1231 12.3194 7.99977 12.3194C7.87645 12.3194 7.75448 12.3451 7.64164 12.3948L5.6858 13.2567C5.54369 13.3193 5.38765 13.3435 5.23324 13.327C5.07884 13.3104 4.93148 13.2537 4.80586 13.1624C4.68024 13.0711 4.58076 12.9484 4.51735 12.8067C4.45393 12.6649 4.4288 12.509 4.44446 12.3545L4.65934 10.2276C4.67178 10.1051 4.65858 9.98123 4.62056 9.86403C4.58255 9.74683 4.52056 9.63882 4.43854 9.54688L3.01429 7.95273C2.91089 7.83697 2.83964 7.69613 2.80764 7.54425C2.77565 7.39237 2.78403 7.23475 2.83194 7.08712C2.87985 6.93948 2.96563 6.80698 3.08072 6.70284C3.19581 6.59869 3.33618 6.52653 3.48785 6.49355L5.57747 6.04129C5.698 6.01523 5.81178 5.96434 5.91156 5.89188C6.01133 5.81941 6.09492 5.72696 6.157 5.62041L7.23259 3.7729Z" fill="#F59E0B"/>
</svg>
