<svg width="16" height="16" viewBox="0 0 16 16" fill="none" xmlns="http://www.w3.org/2000/svg">
<path d="M13 8C13 8.65661 12.8707 9.30679 12.6194 9.91342C12.3681 10.52 11.9998 11.0712 11.5355 11.5355C11.0712 11.9998 10.52 12.3681 9.91342 12.6194C9.30679 12.8707 8.65661 13 8 13C7.34339 13 6.69321 12.8707 6.08658 12.6194C5.47996 12.3681 4.92876 11.9998 4.46447 11.5355C4.00017 11.0712 3.63188 10.52 3.3806 9.91342C3.12933 9.30679 3 8.65661 3 8C3 6.67392 3.52678 5.40215 4.46447 4.46447C5.40215 3.52678 6.67392 3 8 3C9.32608 3 10.5979 3.52678 11.5355 4.46447C12.4732 5.40215 13 6.67392 13 8Z" stroke="#64748B" stroke-width="0.5" stroke-linecap="round" stroke-linejoin="round"/>
</svg>
