<svg width="24" height="24" viewBox="0 0 24 24" fill="none" xmlns="http://www.w3.org/2000/svg">
<path d="M12.6062 19.9774C12.8062 19.9627 13.0039 19.941 13.1992 19.9115C13.3344 19.8906 13.468 19.8672 13.6 19.8403C17.2516 19.099 20 15.8707 20 12C20 7.5816 16.418 4 12 4C7.58203 4 4 7.5816 4 12V18C4 19.1046 4.89543 20 6 20H12L12.1742 19.9983M12.6062 19.9774C12.601 19.9778 12.5958 19.9779 12.5906 19.9783M12.6062 19.9774L12.5906 19.9783M12.5906 19.9783C12.5768 19.9793 12.563 19.9809 12.5492 19.9818M12.5906 19.9783L12.5492 19.9818M12.5492 19.9818C12.5139 19.9841 12.4784 19.9859 12.443 19.9878M12.5492 19.9818L12.443 19.9878M12.443 19.9878C12.4219 19.989 12.4008 19.9903 12.3797 19.9913M12.443 19.9878L12.3797 19.9913M12.3797 19.9913C12.3397 19.9932 12.2996 19.9943 12.2594 19.9957M12.3797 19.9913L12.2594 19.9957M12.2594 19.9957C12.231 19.9966 12.2027 19.9976 12.1742 19.9983M12.2594 19.9957L12.1742 19.9983" stroke="#64748B"/>
</svg>
