<svg width="16" height="16" viewBox="0 0 16 16" fill="none" xmlns="http://www.w3.org/2000/svg">
<path d="M2.58398 2.99316C2.6619 2.97419 2.74388 2.9767 2.82031 3.00098V3L11.9863 5.99414H11.9873C12.0707 6.02229 12.1443 6.07522 12.1973 6.14551C12.2502 6.21575 12.281 6.30083 12.2852 6.38867C12.2892 6.47646 12.2658 6.56385 12.2197 6.63867C12.1745 6.71194 12.1085 6.76969 12.0303 6.80566H12.0293V6.80664L9.37598 7.82617L9.36816 7.8291L9.36133 7.83203C9.32618 7.84811 9.29277 7.86778 9.2627 7.8916L9.18262 7.97363C9.15896 8.00409 9.13866 8.0373 9.12305 8.07227L9.08887 8.18262C9.07517 8.25851 9.08058 8.33652 9.10352 8.41016C9.12644 8.48372 9.1664 8.55082 9.2207 8.60547L9.22168 8.60645L12.166 11.5449H12.167C12.2077 11.5855 12.2397 11.6344 12.2617 11.6875C12.2837 11.7405 12.2949 11.7972 12.2949 11.8545C12.2949 11.912 12.2838 11.9693 12.2617 12.0225C12.2397 12.0756 12.2077 12.1244 12.167 12.165H12.166L11.4395 12.8926H11.4385C11.3979 12.9332 11.3499 12.9653 11.2969 12.9873C11.2437 13.0094 11.1865 13.0215 11.1289 13.0215C11.0714 13.0215 11.0141 13.0094 10.9609 12.9873C10.9346 12.9763 10.9093 12.9631 10.8857 12.9473L10.8193 12.8926L7.87891 9.95215L7.78809 9.88086L7.68359 9.83301L7.57031 9.8125L7.45508 9.81934C7.41689 9.82624 7.37989 9.83778 7.34473 9.85352L7.24609 9.91211C7.18511 9.95956 7.13657 10.0215 7.10449 10.0918L7.10156 10.0986L7.09863 10.1064L6.0791 12.7598C6.0458 12.8374 5.99063 12.9039 5.91992 12.9502C5.84905 12.9965 5.76533 13.0212 5.68066 13.0205H5.65625C5.56847 13.0168 5.48396 12.9859 5.41406 12.9326C5.34412 12.8793 5.29143 12.8055 5.26465 12.7217V12.7207L2.27051 3.55078C2.24623 3.47435 2.24372 3.39237 2.2627 3.31445C2.28168 3.23655 2.32123 3.16509 2.37793 3.1084C2.43463 3.0517 2.50608 3.01215 2.58398 2.99316Z" stroke="#64748B" stroke-width="0.5"/>
</svg>
