<svg width="16" height="16" viewBox="0 0 16 16" fill="none" xmlns="http://www.w3.org/2000/svg">
<path d="M3 7.39531V9.37969C3 10.4536 3 10.9908 3.13 11.429C3.44 12.4722 4.26823 13.2928 5.32704 13.6579C5.67998 13.7599 6.03056 13.8683 6.70585 13.9662C7.09999 14.0217 7.50094 14.0087 7.89055 13.928C8.06878 13.8921 8.21408 13.8613 8.33643 13.8353C8.62466 13.7738 8.91289 13.7002 9.1776 13.5721C9.47642 13.4284 9.70877 13.2789 10.0452 13.0314C10.2464 12.8836 10.4305 12.7034 10.7982 12.3429L12.7082 10.471C12.8006 10.3805 12.874 10.2729 12.9241 10.1543C12.9742 10.0357 13 9.90858 13 9.78015C13 9.65173 12.9742 9.52458 12.9241 9.40602C12.874 9.28746 12.8006 9.17983 12.7082 9.08933C12.5208 8.90601 12.2675 8.80312 12.0035 8.80312C11.7394 8.80312 11.4861 8.90601 11.2988 9.08933L9.97524 10.3869V7.39531M8.23113 6.11624V5.01394C8.23113 4.5416 8.62172 4.1591 9.10348 4.1591C9.58465 4.1591 9.97524 4.5416 9.97524 5.01394V7.57786M6.48762 7.39299V3.85484C6.48762 3.3825 6.8782 3 7.35938 3C7.84114 3 8.23113 3.3825 8.23113 3.85484V7.39531M4.74352 5.80792V7.39531V4.43728C4.74942 4.21328 4.84389 4.0004 5.00679 3.84402C5.16968 3.68764 5.38813 3.60013 5.61557 3.60013C5.84301 3.60013 6.06145 3.68764 6.22435 3.84402C6.38725 4.0004 6.48171 4.21328 6.48762 4.43728V7.39531M4.74352 6.69695V6.17304C4.74352 5.7007 4.35352 5.3182 3.87176 5.3182C3.39059 5.3182 3 5.7007 3 6.17304V7.75984" stroke="#64748B" stroke-width="0.5" stroke-linecap="round" stroke-linejoin="round"/>
</svg>
