<svg width="16" height="16" viewBox="0 0 16 16" fill="none" xmlns="http://www.w3.org/2000/svg">
<path d="M3.26412 3.26119L6.12598 6.12305M3.26412 2.99805C3.19433 2.99805 3.1274 3.02577 3.07805 3.07512C3.0287 3.12447 3.00098 3.1914 3.00098 3.26119V7.47152C3.00098 8.65796 3.47229 9.79581 4.31123 10.6347C5.15017 11.4737 6.28801 11.945 7.47445 11.945C8.04819 11.9454 8.61607 11.8354 9.14729 11.6217L10.4459 12.9207C10.4703 12.9452 10.4994 12.9647 10.5313 12.978C10.5633 12.9912 10.5976 12.998 10.6322 12.998C10.6668 12.998 10.7011 12.9912 10.7331 12.978C10.765 12.9647 10.7941 12.9452 10.8185 12.9207L12.9237 10.8156C12.9482 10.7911 12.9676 10.7621 12.9809 10.7301C12.9941 10.6982 13.001 10.6639 13.001 10.6293C13.001 10.5947 12.9941 10.5604 12.9809 10.5284C12.9676 10.4964 12.9482 10.4674 12.9237 10.443L11.6247 9.14402C11.6247 9.14402 11.9483 8.04514 11.9479 7.47152C11.9479 6.28508 11.4766 5.14724 10.6377 4.3083C9.79874 3.46936 8.66089 2.99805 7.47445 2.99805H3.26412Z" stroke="#64748B" stroke-width="0.5" stroke-linecap="square"/>
<path d="M7 6C6.44772 6 6 6.44772 6 7C6 7.55229 6.44772 8 7 8C7.55229 8 8 7.55229 8 7C8 6.44772 7.55229 6 7 6Z" stroke="#94A3B8" stroke-width="0.5" stroke-linecap="round"/>
</svg>
