<svg width="16" height="16" viewBox="0 0 16 16" fill="none" xmlns="http://www.w3.org/2000/svg">
<path d="M6.2216 12.555C6.08082 12.696 5.91363 12.8079 5.72959 12.8843C5.54555 12.9606 5.34828 12.9999 5.14903 13H3V10.8644C3 10.4622 3.15997 10.0761 3.44436 9.79166M6.2216 12.555L3.44436 9.79166M6.2216 12.555L11.7617 7.01165M3.44436 9.79166L8.98996 4.23887L9.78203 3.44553C9.92298 3.30434 10.0904 3.19232 10.2746 3.11587C10.4589 3.03943 10.6564 3.00005 10.8559 3C11.0554 2.99995 11.2529 3.03922 11.4372 3.11557C11.6215 3.19193 11.7889 3.30386 11.93 3.44498L12.5554 4.07109C12.8401 4.35583 13 4.74202 13 5.1447C13 5.54738 12.8401 5.93357 12.5554 6.21832L11.7617 7.01165M11.7617 7.01165L8.98941 4.23887" stroke="#64748B" stroke-width="0.5" stroke-linecap="round" stroke-linejoin="round"/>
</svg>
