<svg width="16" height="16" viewBox="0 0 16 16" fill="none" xmlns="http://www.w3.org/2000/svg">
<path d="M3 9.0075V6.9925C3 6.3795 3 6.0725 3.114 5.7975C3.2285 5.5215 3.445 5.305 3.879 4.8715L4.8715 3.8785C5.305 3.445 5.5215 3.2285 5.7975 3.114C6.0725 3 6.3795 3 6.9925 3H9.0075C9.6205 3 9.9275 3 10.2025 3.114C10.4785 3.2285 10.695 3.445 11.1285 3.879L12.1215 4.8715C12.555 5.305 12.7715 5.5215 12.886 5.7975C13 6.0725 13 6.3795 13 6.9925V9.0075C13 9.6205 13 9.9275 12.886 10.2025C12.7715 10.4785 12.555 10.695 12.121 11.1285L11.1285 12.1215C10.695 12.555 10.4785 12.7715 10.2025 12.886C9.9275 13 9.6205 13 9.0075 13H6.9925C6.3795 13 6.0725 13 5.7975 12.886C5.5215 12.7715 5.305 12.555 4.8715 12.121L3.8785 11.1285C3.445 10.695 3.2285 10.4785 3.114 10.2025C3 9.9275 3 9.6205 3 9.0075Z" stroke="#64748B" stroke-width="0.5" stroke-linecap="round"/>
</svg>
