<svg width="16" height="16" viewBox="0 0 16 16" fill="none" xmlns="http://www.w3.org/2000/svg">
<path d="M8.97438 3.27795C8.92713 3.19365 8.85826 3.12346 8.77487 3.07461C8.69148 3.02575 8.59658 3 8.49993 3C8.40329 3 8.30838 3.02575 8.22499 3.07461C8.1416 3.12346 8.07274 3.19365 8.02548 3.27795C7.91437 3.48017 7.80752 3.68498 7.70493 3.89239C7.3817 4.54846 7.10689 5.22729 6.8827 5.92345C6.80548 6.16289 6.57658 6.329 6.31436 6.33622C5.51948 6.35711 4.72718 6.43603 3.94379 6.57232C3.51378 6.64788 3.35212 7.13787 3.65767 7.43675C3.7273 7.50527 3.79767 7.57286 3.86879 7.63952C4.40049 8.14165 4.96267 8.61049 5.55213 9.04338C5.75602 9.19282 5.83991 9.44892 5.76213 9.68336C5.46585 10.5739 5.25381 11.4903 5.1288 12.4205C5.07324 12.84 5.52213 13.1361 5.91214 12.9361C6.6855 12.5395 7.42502 12.0802 8.12326 11.5628C8.23263 11.4829 8.36453 11.4399 8.49993 11.4399C8.63533 11.4399 8.76724 11.4829 8.8766 11.5628C9.5747 12.0804 10.3142 12.5398 11.0877 12.9361C11.4772 13.1361 11.9266 12.84 11.8711 12.4205C11.8496 12.2631 11.8261 12.1066 11.8005 11.9511C11.6722 11.1817 11.484 10.4235 11.2377 9.68336C11.16 9.44892 11.2433 9.19282 11.4477 9.04338C12.1165 8.55338 12.7496 8.01649 13.3422 7.43675C13.6478 7.13787 13.4866 6.64788 13.0561 6.57232C12.2728 6.43523 11.4804 6.35631 10.6855 6.33622C10.5598 6.33422 10.4378 6.29351 10.3361 6.21964C10.2344 6.14578 10.1579 6.04235 10.1172 5.92345C9.822 5.00718 9.4393 4.12089 8.97438 3.27795Z" stroke="#64748B" stroke-width="0.5" stroke-linecap="round" stroke-linejoin="round"/>
</svg>
