<svg width="16" height="16" viewBox="0 0 16 16" fill="none" xmlns="http://www.w3.org/2000/svg">
<path d="M3.99902 9.59673L5.2746 6.68674M5.2746 6.68674H9.86889M5.2746 6.68674L7.23073 2.22877C7.25839 2.16114 7.30564 2.10325 7.36644 2.06251C7.42724 2.02176 7.49885 2 7.57211 2C7.64538 2 7.71698 2.02176 7.77779 2.06251C7.83859 2.10325 7.88584 2.16114 7.9135 2.22877L9.86889 6.68674M9.86889 6.68674L11.1452 9.59746M3.99902 11.5172L5.08598 12.7586M6.17294 14L5.08598 12.7586M5.08598 12.7586C5.08598 12.7586 6.07817 10.6332 7.38246 10.2759C8.81004 9.88471 9.53973 11.9444 10.9559 11.5172C12.3252 11.1042 13.1295 8.69306 13.1295 8.69306M13.1295 8.69306L12.2599 7.7931M13.1295 8.69306L13.999 9.44828" stroke="#94A3B8" stroke-width="0.5" stroke-linecap="round" stroke-linejoin="round"/>
</svg>
