<svg width="72" height="72" viewBox="0 0 72 72" fill="none" xmlns="http://www.w3.org/2000/svg">
<path d="M36.0027 0L41.0709 3.99844L47.1268 1.76242L50.7106 7.13072L57.1613 6.87481L58.9109 13.0896L65.1255 14.8393L64.8696 21.2903L70.2388 24.8753L68.0017 30.9314L72 35.9998L68.0017 41.0682L70.2388 47.1244L64.8696 50.7083L65.1255 57.1593L58.9109 58.9089L57.1613 65.1237L50.7106 64.8678L47.1268 70.2373L41.0709 68.0001L36.0027 71.9985L30.9346 68.0001L24.8787 70.2373L21.2938 64.8678L14.843 65.1237L13.0934 58.9089L6.88003 57.1593L7.13593 50.7083L1.76668 47.1244L4.00261 41.0682L0.00433362 35.9998L4.00261 30.9314L1.76668 24.8753L7.13593 21.2903L6.88003 14.8393L13.0934 13.0896L14.843 6.87481L21.2938 7.13072L24.8787 1.76242L30.9346 3.99844L36.0027 0Z" fill="#020617"/>
<path d="M35.9984 0.0014662L41.0666 3.99991L47.1225 1.76388L50.7062 7.13219L57.157 6.87628L58.9066 13.0911L65.1211 14.8407L64.8652 21.2917L70.2345 24.8768L67.9974 30.9329L71.9957 36.0013L67.9974 41.0697L70.2345 47.1258L64.8652 50.7097L65.1211 57.1607L58.9066 58.9104L57.157 65.1252L50.7062 64.8693L47.1225 70.2387L41.0666 68.0016L35.9984 72L30.9302 68.0016L24.8743 70.2387L21.2894 64.8693L14.8387 65.1252L13.0891 58.9104L6.8757 57.1607L7.1316 50.7097L1.76235 47.1258L3.99828 41.0697L0 36.0013L3.99828 30.9329L1.76235 24.8768L7.1316 21.2917L6.8757 14.8407L13.0891 13.0911L14.8387 6.87628L21.2894 7.13219L24.8743 1.76388L30.9302 3.99991L35.9984 0.0014662Z" fill="#020617"/>
</svg>
