<svg width="72" height="72" viewBox="0 0 72 72" fill="none" xmlns="http://www.w3.org/2000/svg">
<path d="M11.3326 0H60.6634C63.6694 0 66.5514 1.19385 68.6774 3.31984C70.8022 5.44468 71.996 8.32797 71.996 11.3328V60.665C71.996 63.671 70.8022 66.5531 68.6774 68.6791C66.5514 70.804 63.6694 71.999 60.6634 71.999H11.3326C8.32776 71.999 5.44454 70.804 3.31976 68.6791C1.19382 66.5531 0 63.671 0 60.665V11.3328C0 8.32797 1.19382 5.44468 3.31976 3.31984C5.44454 1.19385 8.32776 0 11.3326 0Z" fill="#020617"/>
<path d="M11.3366 0.0010369H60.6674C63.6734 0.0010369 66.5555 1.19488 68.6814 3.32088C70.8062 5.44571 72 8.32901 72 11.3339V60.666C72 63.672 70.8062 66.5542 68.6814 68.6802C66.5555 70.805 63.6734 72 60.6674 72H11.3366C8.33178 72 5.44856 70.805 3.32378 68.6802C1.19783 66.5542 0.0040186 63.672 0.0040186 60.666V11.3339C0.0040186 8.32901 1.19783 5.44571 3.32378 3.32088C5.44856 1.19488 8.33178 0.0010369 11.3366 0.0010369Z" fill="#020617"/>
</svg>
